{"title":"Killers 2010 - honchorella","uid":5786187,"size":721945040,"categoryP":"video","categoryS":"movies","magnet":"?xt=urn:btih:974811c607f96fc42c50e8d73d32a102046895a4&amp;dn=Killers+2010+-+honchorella&amp;tr=udp%3A%2F%2Ftracker.openbittorrent.com%3A80&amp;tr=udp%3A%2F%2Fopen.demonii.com%3A1337&amp;tr=udp%3A%2F%2Ftracker.coppersurfer.tk%3A6969&amp;tr=udp%3A%2F%2Fexodus.desync.com%3A6969","seeders":0,"leechers":0,"uploader":"honchorella31","files":7,"time":1282642957,"description":"\n &lt;a href=&quot;\nhttp://www.imdb.com/title/tt1103153/&quot; rel=&quot;nofollow&quot; target=&quot;_NEW&quot;&gt;\nhttp://www.imdb.com/title/tt1103153/&lt;/a&gt;\n\nSpencer Aimes is just your average, undercover, government-hired super-assassin accustomed to a life of exotic European locales, flashy sports cars and even flashier women. But when he meets Jen Kornfeldt, a beautiful, fun-loving computer tech recovering from a bad break-up, he finds true love...and happily trades international intrigue for domestic bliss. Three years later, Spencer and Jen are still enjoying a picture-perfect marriage - that is, until the morning after Spencer's 30th birthday. That's when Spencer and Jen learn he's the target of a multi-million dollar hit. Even worse, the hired killers have been stalking the happy couple for years, and could be anyone: friends, neighbors, the grocery store clerk, even that crabby old guy shuffling across the street. Now Spencer and Jen are on the run for their lives. As their suburban paradise turns into a paranoid game of dodge-the-bullet, they must find out who wants Spencer dead and why, all the while trying to save their marriage, manage his in-laws, keep up neighborly appearances ... and just plain survive.\n\nGeneral\nComplete name                    : Killers.mp4\nFormat                           : MPEG-4\nCodec ID                         : M4V \nFile size                        : 688 MiB\nDuration                         : 1h 40mn\nOverall bit rate                 : 958 Kbps\nEncoded date                     : UTC 2010-08-19 20:04:01\nTagged date                      : UTC 2010-08-19 20:04:01\n\nVideo\nID                               : 1\nFormat                           : AVC\nFormat/Info                      : Advanced Video Codec\nFormat profile                   : &lt;a class=&quot;__cf_email__&quot; href=&quot;/cdn-cgi/l/email-protection&quot; data-cfemail=&quot;f3b19280969f9a9d96b3bfc0ddc3&quot;&gt;[email&amp;#160;protected]&lt;/a&gt;&lt;script data-cfhash='f9e31' type=&quot;text/javascript&quot;&gt;\n/* &lt;![CDATA[ */!function(){try{var t=&quot;currentScript&quot;in document?document.currentScript:function(){for(var t=document.getElementsByTagName(&quot;script&quot;),e=t.length;e--;)if(t[e].getAttribute(&quot;data-cfhash&quot;))return t[e]}();if(t&amp;&amp;t.previousSibling){var e,r,n,i,c=t.previousSibling,a=c.getAttribute(&quot;data-cfemail&quot;);if(a){for(e=&quot;&quot;,r=parseInt(a.substr(0,2),16),n=2;a.length-n;n+=2)i=parseInt(a.substr(n,2),16)^r,e+=String.fromCharCode(i);e=document.createTextNode(e),c.parentNode.replaceChild(e,c)}t.parentNode.removeChild(t);}}catch(u){}}()/* ]]&gt; */&lt;/script&gt;\nFormat settings, CABAC           : No\nFormat settings, ReFrames        : 3 frames\nCodec ID                         : avc1\nCodec ID/Info                    : Advanced Video Coding\nDuration                         : 1h 40mn\nBit rate mode                    : Variable\nBit rate                         : 844 Kbps\nMaximum bit rate                 : 4 776 Kbps\nWidth                            : 640 pixels\nHeight                           : 272 pixels\nDisplay aspect ratio             : 2.35:1\nFrame rate mode                  : Constant\nFrame rate                       : 23.976 fps\nColor space                      : YUV\nChroma subsampling               : 4:2:0\nBit depth                        : 8 bits\nScan type                        : Progressive\nBits/(Pixel*Frame)               : 0.202\nStream size                      : 594 MiB (86%)\nTitle                            : Killers\nWriting library                  : x264 core 98 r1643 59a9e03\n\nAudio\nID                               : 2\nFormat                           : AAC\nFormat/Info                      : Advanced Audio Codec\nFormat version                   : Version 4\nFormat profile                   : LC\nFormat settings, SBR             : No\nCodec ID                         : 40\nDuration                         : 1h 40mn\nBit rate mode                    : Variable\nBit rate                         : 128 Kbps\nMaximum bit rate                 : 135 Kbps\nChannel(s)                       : 2 channels\nChannel positions                : Front: L R\nSampling rate                    : 48.0 KHz\nStream size                      : 92.2 MiB (13%)\nLanguage                         : English\n\n\n\n\n\nThese encodes work on PC/WDTV Live/Ipod Touch/Iphone tested and work great. They should also work on PS3 and 360 but untested.\n\nSource:Killers.2010.Bluray.720p.DTS.x264-CHD.\n","torrent":{"xt":"urn:btih:974811c607f96fc42c50e8d73d32a102046895a4","amp;dn":"Killers+2010+-+honchorella","amp;tr":["udp%3A%2F%2Ftracker.openbittorrent.com%3A80","udp%3A%2F%2Fopen.demonii.com%3A1337","udp%3A%2F%2Ftracker.coppersurfer.tk%3A6969","udp%3A%2F%2Fexodus.desync.com%3A6969"],"infoHash":"974811c607f96fc42c50e8d73d32a102046895a4","infoHashBuffer":{"type":"Buffer","data":[151,72,17,198,7,249,111,196,44,80,232,215,61,50,161,2,4,104,149,164]},"announce":[],"urlList":[]}}